<?xml version="1.0" encoding="utf-8" standalone="no"?>
<!DOCTYPE svg PUBLIC "-//W3C//DTD SVG 1.1//EN"
  "http://www.w3.org/Graphics/SVG/1.1/DTD/svg11.dtd">
<svg xmlns:xlink="http://www.w3.org/1999/xlink" width="576pt" height="144pt" viewBox="0 0 576 144" xmlns="http://www.w3.org/2000/svg" version="1.1">
 <metadata>
  <rdf:RDF xmlns:dc="http://purl.org/dc/elements/1.1/" xmlns:cc="http://creativecommons.org/ns#" xmlns:rdf="http://www.w3.org/1999/02/22-rdf-syntax-ns#">
   <cc:Work>
    <dc:type rdf:resource="http://purl.org/dc/dcmitype/StillImage"/>
    <dc:date>2024-03-23T07:50:33.826290</dc:date>
    <dc:format>image/svg+xml</dc:format>
    <dc:creator>
     <cc:Agent>
      <dc:title>Matplotlib v3.8.3, https://matplotlib.org/</dc:title>
     </cc:Agent>
    </dc:creator>
   </cc:Work>
  </rdf:RDF>
 </metadata>
 <defs>
  <style type="text/css">*{stroke-linejoin: round; stroke-linecap: butt}</style>
 </defs>
 <g id="figure_1">
  <g id="patch_1">
   <path d="M 0 144 
L 576 144 
L 576 0 
L 0 0 
z
" style="fill: #ffffff"/>
  </g>
  <g id="axes_1">
   <g id="patch_2">
    <path d="M 53.17 104.6 
L 544.275 104.6 
L 544.275 34.8 
L 53.17 34.8 
z
" style="fill: #ffffff"/>
   </g>
   <g id="matplotlib.axis_1">
    <g id="xtick_1">
     <g id="line2d_1">
      <defs>
       <path id="m4984167683" d="M 0 0 
L 0 3.5 
" style="stroke: #000000; stroke-width: 0.8"/>
      </defs>
      <g>
       <use xlink:href="#m4984167683" x="53.17" y="104.6" style="stroke: #000000; stroke-width: 0.8"/>
      </g>
     </g>
     <g id="text_1">
      <!-- 0.0 -->
      <g transform="translate(38.76625 123.6) scale(0.16 -0.16)">
       <defs>
        <path id="RobotoMono-Regular-30" d="M 3400 1741 
L 3400 2806 
Q 3400 3241 3300 3577 
Q 3200 3913 3013 4144 
Q 2822 4375 2548 4495 
Q 2275 4616 1925 4616 
Q 1578 4616 1304 4495 
Q 1031 4375 844 4144 
Q 653 3913 553 3577 
Q 453 3241 453 2806 
L 453 1741 
Q 453 1306 553 970 
Q 653 634 844 406 
Q 1034 172 1309 54 
Q 1584 -63 1931 -63 
Q 2281 -63 2553 56 
Q 2825 175 3013 406 
Q 3200 634 3300 970 
Q 3400 1306 3400 1741 
z
M 1034 1856 
Q 1034 1938 1034 2016 
Q 1034 2094 1034 2172 
L 1034 2934 
Q 1034 3253 1098 3495 
Q 1163 3738 1294 3891 
Q 1403 4013 1561 4077 
Q 1719 4141 1925 4141 
Q 2128 4141 2283 4081 
Q 2438 4022 2544 3903 
Q 2653 3788 2717 3614 
Q 2781 3441 2806 3216 
L 1034 1856 
z
M 2819 1619 
Q 2819 1284 2751 1037 
Q 2684 791 2541 638 
Q 2434 525 2281 465 
Q 2128 406 1931 406 
Q 1744 406 1594 461 
Q 1444 516 1338 622 
Q 1222 734 1150 907 
Q 1078 1081 1050 1309 
L 2819 2663 
Q 2819 2575 2819 2442 
Q 2819 2309 2819 2263 
L 2819 1619 
z
" transform="scale(0.015625)"/>
        <path id="RobotoMono-Regular-2e" d="M 1550 375 
Q 1550 194 1664 67 
Q 1778 -59 2003 -59 
Q 2225 -59 2344 66 
Q 2463 191 2463 375 
Q 2463 563 2345 692 
Q 2228 822 2003 822 
Q 1775 822 1662 690 
Q 1550 559 1550 375 
z
" transform="scale(0.015625)"/>
       </defs>
       <use xlink:href="#RobotoMono-Regular-30"/>
       <use xlink:href="#RobotoMono-Regular-2e" x="60.009766"/>
       <use xlink:href="#RobotoMono-Regular-30" x="120.019531"/>
      </g>
     </g>
    </g>
    <g id="xtick_2">
     <g id="line2d_2">
      <g>
       <use xlink:href="#m4984167683" x="151.391" y="104.6" style="stroke: #000000; stroke-width: 0.8"/>
      </g>
     </g>
     <g id="text_2">
      <!-- 0.2 -->
      <g transform="translate(136.98725 123.6) scale(0.16 -0.16)">
       <defs>
        <path id="RobotoMono-Regular-32" d="M 3334 0 
L 3334 472 
L 1050 472 
L 2272 1797 
Q 2444 1984 2598 2173 
Q 2753 2363 2872 2556 
Q 2988 2750 3056 2948 
Q 3125 3147 3125 3350 
Q 3125 3622 3029 3853 
Q 2934 4084 2756 4253 
Q 2578 4422 2320 4517 
Q 2063 4613 1741 4613 
Q 1391 4613 1117 4500 
Q 844 4388 656 4197 
Q 466 4006 366 3751 
Q 266 3497 266 3209 
L 847 3209 
Q 847 3422 901 3594 
Q 956 3766 1069 3888 
Q 1178 4006 1345 4072 
Q 1513 4138 1741 4138 
Q 1928 4138 2076 4073 
Q 2225 4009 2331 3900 
Q 2434 3791 2489 3642 
Q 2544 3494 2544 3325 
Q 2544 3188 2509 3058 
Q 2475 2928 2394 2784 
Q 2313 2638 2178 2466 
Q 2044 2294 1844 2072 
L 353 416 
L 353 0 
L 3334 0 
z
" transform="scale(0.015625)"/>
       </defs>
       <use xlink:href="#RobotoMono-Regular-30"/>
       <use xlink:href="#RobotoMono-Regular-2e" x="60.009766"/>
       <use xlink:href="#RobotoMono-Regular-32" x="120.019531"/>
      </g>
     </g>
    </g>
    <g id="xtick_3">
     <g id="line2d_3">
      <g>
       <use xlink:href="#m4984167683" x="249.612" y="104.6" style="stroke: #000000; stroke-width: 0.8"/>
      </g>
     </g>
     <g id="text_3">
      <!-- 0.4 -->
      <g transform="translate(235.20825 123.6) scale(0.16 -0.16)">
       <defs>
        <path id="RobotoMono-Regular-34" d="M 2888 1528 
L 2888 4550 
L 2272 4550 
L 234 1397 
L 234 1056 
L 2309 1056 
L 2309 0 
L 2888 0 
L 2888 1056 
L 3522 1056 
L 3522 1528 
L 2888 1528 
z
M 875 1528 
L 2216 3606 
L 2309 3781 
L 2309 1528 
L 875 1528 
z
" transform="scale(0.015625)"/>
       </defs>
       <use xlink:href="#RobotoMono-Regular-30"/>
       <use xlink:href="#RobotoMono-Regular-2e" x="60.009766"/>
       <use xlink:href="#RobotoMono-Regular-34" x="120.019531"/>
      </g>
     </g>
    </g>
    <g id="xtick_4">
     <g id="line2d_4">
      <g>
       <use xlink:href="#m4984167683" x="347.833" y="104.6" style="stroke: #000000; stroke-width: 0.8"/>
      </g>
     </g>
     <g id="text_4">
      <!-- 0.6 -->
      <g transform="translate(333.42925 123.6) scale(0.16 -0.16)">
       <defs>
        <path id="RobotoMono-Regular-36" d="M 2675 4553 
L 2625 4553 
Q 2138 4553 1753 4417 
Q 1369 4281 1100 4013 
Q 709 3622 575 3072 
Q 441 2522 441 1953 
L 441 1681 
Q 441 1350 541 1020 
Q 641 691 844 444 
Q 1025 219 1290 78 
Q 1556 -63 1906 -63 
Q 2253 -63 2517 59 
Q 2781 181 2959 394 
Q 3138 603 3227 884 
Q 3316 1166 3316 1484 
Q 3316 1763 3241 2031 
Q 3166 2300 3006 2513 
Q 2847 2725 2600 2854 
Q 2353 2984 2013 2984 
Q 1856 2984 1714 2948 
Q 1572 2913 1450 2853 
Q 1325 2791 1219 2708 
Q 1113 2625 1031 2528 
Q 1050 2828 1151 3112 
Q 1253 3397 1450 3603 
Q 1638 3800 1925 3917 
Q 2213 4034 2625 4034 
L 2675 4034 
L 2675 4553 
z
M 1919 2503 
Q 2128 2503 2284 2415 
Q 2441 2328 2544 2181 
Q 2647 2034 2697 1845 
Q 2747 1656 2747 1456 
Q 2747 1231 2692 1039 
Q 2638 847 2531 709 
Q 2422 572 2265 494 
Q 2109 416 1906 416 
Q 1731 416 1572 498 
Q 1413 581 1291 741 
Q 1169 900 1097 1133 
Q 1025 1366 1025 1666 
L 1025 1859 
Q 1078 2003 1168 2122 
Q 1259 2241 1378 2325 
Q 1497 2409 1634 2456 
Q 1772 2503 1919 2503 
z
" transform="scale(0.015625)"/>
       </defs>
       <use xlink:href="#RobotoMono-Regular-30"/>
       <use xlink:href="#RobotoMono-Regular-2e" x="60.009766"/>
       <use xlink:href="#RobotoMono-Regular-36" x="120.019531"/>
      </g>
     </g>
    </g>
    <g id="xtick_5">
     <g id="line2d_5">
      <g>
       <use xlink:href="#m4984167683" x="446.054" y="104.6" style="stroke: #000000; stroke-width: 0.8"/>
      </g>
     </g>
     <g id="text_5">
      <!-- 0.8 -->
      <g transform="translate(431.65025 123.6) scale(0.16 -0.16)">
       <defs>
        <path id="RobotoMono-Regular-38" d="M 3344 3363 
Q 3344 3659 3241 3892 
Q 3138 4125 2956 4284 
Q 2775 4444 2528 4528 
Q 2281 4613 1994 4613 
Q 1703 4613 1458 4528 
Q 1213 4444 1038 4284 
Q 859 4125 759 3892 
Q 659 3659 659 3363 
Q 659 3194 706 3041 
Q 753 2888 838 2759 
Q 922 2628 1044 2523 
Q 1166 2419 1316 2344 
Q 1141 2269 1000 2156 
Q 859 2044 759 1903 
Q 659 1759 606 1589 
Q 553 1419 553 1228 
Q 553 916 665 675 
Q 778 434 975 272 
Q 1169 106 1433 21 
Q 1697 -63 2003 -63 
Q 2303 -63 2565 23 
Q 2828 109 3025 275 
Q 3219 438 3333 678 
Q 3447 919 3447 1228 
Q 3447 1419 3392 1587 
Q 3338 1756 3238 1900 
Q 3134 2044 2992 2155 
Q 2850 2266 2675 2341 
Q 2775 2391 2862 2453 
Q 2950 2516 3022 2588 
Q 3172 2738 3256 2936 
Q 3341 3134 3344 3363 
z
M 2869 1241 
Q 2869 1044 2805 889 
Q 2741 734 2628 628 
Q 2513 522 2353 465 
Q 2194 409 2003 409 
Q 1803 409 1642 465 
Q 1481 522 1369 628 
Q 1256 734 1195 889 
Q 1134 1044 1134 1241 
Q 1134 1431 1195 1590 
Q 1256 1750 1369 1866 
Q 1481 1978 1640 2040 
Q 1800 2103 1997 2103 
Q 2188 2103 2348 2040 
Q 2509 1978 2625 1866 
Q 2741 1750 2805 1590 
Q 2869 1431 2869 1241 
z
M 2763 3353 
Q 2763 3178 2706 3034 
Q 2650 2891 2550 2791 
Q 2447 2688 2306 2633 
Q 2166 2578 2000 2578 
Q 1831 2578 1692 2633 
Q 1553 2688 1453 2791 
Q 1350 2891 1295 3033 
Q 1241 3175 1241 3353 
Q 1241 3531 1295 3676 
Q 1350 3822 1450 3925 
Q 1550 4028 1687 4083 
Q 1825 4138 1994 4138 
Q 2163 4138 2303 4080 
Q 2444 4022 2547 3919 
Q 2647 3813 2705 3669 
Q 2763 3525 2763 3353 
z
" transform="scale(0.015625)"/>
       </defs>
       <use xlink:href="#RobotoMono-Regular-30"/>
       <use xlink:href="#RobotoMono-Regular-2e" x="60.009766"/>
       <use xlink:href="#RobotoMono-Regular-38" x="120.019531"/>
      </g>
     </g>
    </g>
    <g id="xtick_6">
     <g id="line2d_6">
      <g>
       <use xlink:href="#m4984167683" x="544.275" y="104.6" style="stroke: #000000; stroke-width: 0.8"/>
      </g>
     </g>
     <g id="text_6">
      <!-- 1.0 -->
      <g transform="translate(529.87125 123.6) scale(0.16 -0.16)">
       <defs>
        <path id="RobotoMono-Regular-31" d="M 2419 0 
L 2419 4550 
L 2372 4550 
L 650 3888 
L 650 3359 
L 1841 3813 
L 1841 0 
L 2419 0 
z
" transform="scale(0.015625)"/>
       </defs>
       <use xlink:href="#RobotoMono-Regular-31"/>
       <use xlink:href="#RobotoMono-Regular-2e" x="60.009766"/>
       <use xlink:href="#RobotoMono-Regular-30" x="120.019531"/>
      </g>
     </g>
    </g>
   </g>
   <g id="matplotlib.axis_2">
    <g id="ytick_1">
     <g id="line2d_7">
      <defs>
       <path id="m3755ddb79a" d="M 0 0 
L -3.5 0 
" style="stroke: #000000; stroke-width: 0.8"/>
      </defs>
      <g>
       <use xlink:href="#m3755ddb79a" x="53.17" y="104.6" style="stroke: #000000; stroke-width: 0.8"/>
      </g>
     </g>
     <g id="text_7">
      <!-- 0.0 -->
      <g transform="translate(17.3625 110.6) scale(0.16 -0.16)">
       <use xlink:href="#RobotoMono-Regular-30"/>
       <use xlink:href="#RobotoMono-Regular-2e" x="60.009766"/>
       <use xlink:href="#RobotoMono-Regular-30" x="120.019531"/>
      </g>
     </g>
    </g>
    <g id="ytick_2">
     <g id="line2d_8">
      <g>
       <use xlink:href="#m3755ddb79a" x="53.17" y="69.7" style="stroke: #000000; stroke-width: 0.8"/>
      </g>
     </g>
     <g id="text_8">
      <!-- 0.5 -->
      <g transform="translate(17.3625 75.7) scale(0.16 -0.16)">
       <defs>
        <path id="RobotoMono-Regular-35" d="M 750 2281 
L 1213 2163 
Q 1291 2231 1364 2284 
Q 1438 2338 1522 2375 
Q 1606 2413 1711 2433 
Q 1816 2453 1959 2453 
Q 2178 2453 2347 2375 
Q 2516 2297 2631 2163 
Q 2747 2025 2808 1840 
Q 2869 1656 2869 1444 
Q 2869 1209 2814 1018 
Q 2759 828 2653 694 
Q 2544 556 2384 482 
Q 2225 409 2019 409 
Q 1653 409 1420 609 
Q 1188 809 1134 1197 
L 584 1197 
Q 616 881 739 643 
Q 863 406 1056 250 
Q 1247 94 1494 15 
Q 1741 -63 2019 -63 
Q 2381 -63 2650 51 
Q 2919 166 3097 369 
Q 3272 569 3359 847 
Q 3447 1125 3447 1450 
Q 3447 1794 3353 2075 
Q 3259 2356 3084 2556 
Q 2909 2753 2659 2862 
Q 2409 2972 2094 2972 
Q 1847 2972 1659 2912 
Q 1472 2853 1338 2775 
L 1466 3988 
L 3313 3988 
L 3313 4550 
L 978 4550 
L 750 2281 
z
" transform="scale(0.015625)"/>
       </defs>
       <use xlink:href="#RobotoMono-Regular-30"/>
       <use xlink:href="#RobotoMono-Regular-2e" x="60.009766"/>
       <use xlink:href="#RobotoMono-Regular-35" x="120.019531"/>
      </g>
     </g>
    </g>
    <g id="ytick_3">
     <g id="line2d_9">
      <g>
       <use xlink:href="#m3755ddb79a" x="53.17" y="34.8" style="stroke: #000000; stroke-width: 0.8"/>
      </g>
     </g>
     <g id="text_9">
      <!-- 1.0 -->
      <g transform="translate(17.3625 40.8) scale(0.16 -0.16)">
       <use xlink:href="#RobotoMono-Regular-31"/>
       <use xlink:href="#RobotoMono-Regular-2e" x="60.009766"/>
       <use xlink:href="#RobotoMono-Regular-30" x="120.019531"/>
      </g>
     </g>
    </g>
   </g>
   <g id="patch_3">
    <path d="M 53.17 104.6 
L 53.17 34.8 
" style="fill: none; stroke: #000000; stroke-width: 0.8; stroke-linejoin: miter; stroke-linecap: square"/>
   </g>
   <g id="patch_4">
    <path d="M 544.275 104.6 
L 544.275 34.8 
" style="fill: none; stroke: #000000; stroke-width: 0.8; stroke-linejoin: miter; stroke-linecap: square"/>
   </g>
   <g id="patch_5">
    <path d="M 53.17 104.6 
L 544.275 104.6 
" style="fill: none; stroke: #000000; stroke-width: 0.8; stroke-linejoin: miter; stroke-linecap: square"/>
   </g>
   <g id="patch_6">
    <path d="M 53.17 34.8 
L 544.275 34.8 
" style="fill: none; stroke: #000000; stroke-width: 0.8; stroke-linejoin: miter; stroke-linecap: square"/>
   </g>
   <g id="text_10">
    <!-- The quick brown fox jumps over the lazy dog. -->
    <g transform="translate(87.4675 74.16) scale(0.16 -0.16)">
     <defs>
      <path id="RobotoMono-Regular-54" d="M 3613 4056 
L 3613 4550 
L 238 4550 
L 238 4056 
L 1644 4056 
L 1644 0 
L 2206 0 
L 2206 4056 
L 3613 4056 
z
" transform="scale(0.015625)"/>
      <path id="RobotoMono-Regular-68" d="M 1122 2878 
L 1122 4800 
L 544 4800 
L 544 0 
L 1122 0 
L 1122 2456 
Q 1184 2556 1264 2639 
Q 1344 2722 1438 2784 
Q 1556 2866 1697 2909 
Q 1838 2953 1994 2953 
Q 2184 2956 2331 2901 
Q 2478 2847 2575 2738 
Q 2666 2638 2712 2486 
Q 2759 2334 2759 2134 
L 2759 0 
L 3338 0 
L 3338 2128 
Q 3338 2469 3255 2717 
Q 3172 2966 3019 3128 
Q 2866 3291 2648 3367 
Q 2431 3444 2166 3444 
Q 1963 3441 1783 3384 
Q 1603 3328 1453 3219 
Q 1359 3153 1275 3067 
Q 1191 2981 1122 2878 
z
" transform="scale(0.015625)"/>
      <path id="RobotoMono-Regular-65" d="M 2038 -63 
Q 2531 -63 2867 135 
Q 3203 334 3372 591 
L 3019 866 
Q 2859 659 2618 534 
Q 2378 409 2069 409 
Q 1834 409 1640 496 
Q 1447 584 1309 738 
Q 1175 881 1098 1068 
Q 1022 1256 1000 1503 
L 1000 1525 
L 3416 1525 
L 3416 1784 
Q 3416 2138 3327 2441 
Q 3238 2744 3056 2969 
Q 2875 3191 2601 3317 
Q 2328 3444 1963 3444 
Q 1672 3444 1395 3325 
Q 1119 3206 903 2984 
Q 684 2759 553 2436 
Q 422 2113 422 1703 
L 422 1572 
Q 422 1219 540 919 
Q 659 619 872 400 
Q 1084 181 1382 59 
Q 1681 -63 2038 -63 
z
M 1963 2969 
Q 2184 2969 2345 2887 
Q 2506 2806 2613 2675 
Q 2719 2544 2778 2364 
Q 2838 2184 2838 2028 
L 2838 2000 
L 1019 2000 
Q 1053 2234 1139 2414 
Q 1225 2594 1350 2719 
Q 1475 2841 1631 2905 
Q 1788 2969 1963 2969 
z
" transform="scale(0.015625)"/>
      <path id="RobotoMono-Regular-20" transform="scale(0.015625)"/>
      <path id="RobotoMono-Regular-71" d="M 438 1719 
L 438 1653 
Q 438 1291 530 977 
Q 622 663 797 431 
Q 972 200 1223 68 
Q 1475 -63 1797 -63 
Q 1963 -63 2106 -31 
Q 2250 0 2372 59 
Q 2469 103 2551 165 
Q 2634 228 2709 306 
L 2709 -1300 
L 3288 -1300 
L 3288 3381 
L 2756 3381 
L 2731 3047 
Q 2666 3122 2591 3184 
Q 2516 3247 2431 3294 
Q 2300 3369 2142 3406 
Q 1984 3444 1803 3444 
Q 1478 3444 1223 3316 
Q 969 3188 794 2959 
Q 619 2731 528 2414 
Q 438 2097 438 1719 
z
M 1016 1653 
L 1016 1719 
Q 1016 1966 1070 2191 
Q 1125 2416 1241 2591 
Q 1353 2763 1528 2866 
Q 1703 2969 1944 2969 
Q 2078 2969 2192 2936 
Q 2306 2903 2403 2844 
Q 2497 2784 2573 2704 
Q 2650 2625 2709 2528 
L 2709 859 
Q 2647 756 2569 670 
Q 2491 584 2391 525 
Q 2297 472 2184 440 
Q 2072 409 1938 409 
Q 1697 409 1523 511 
Q 1350 613 1238 784 
Q 1125 956 1070 1181 
Q 1016 1406 1016 1653 
z
" transform="scale(0.015625)"/>
      <path id="RobotoMono-Regular-75" d="M 2772 0 
L 3297 0 
L 3297 3381 
L 2716 3381 
L 2716 956 
Q 2669 847 2598 755 
Q 2528 663 2434 597 
Q 2322 516 2169 470 
Q 2016 425 1822 425 
Q 1656 425 1529 469 
Q 1403 513 1316 622 
Q 1228 728 1184 909 
Q 1141 1091 1141 1366 
L 1141 3381 
L 563 3381 
L 563 1372 
Q 563 994 645 723 
Q 728 453 881 278 
Q 1034 103 1250 20 
Q 1466 -63 1731 -63 
Q 2063 -63 2316 76 
Q 2569 216 2738 466 
L 2772 0 
z
" transform="scale(0.015625)"/>
      <path id="RobotoMono-Regular-69" d="M 634 3381 
L 634 2878 
L 1784 2878 
L 1784 500 
L 634 500 
L 634 0 
L 3466 0 
L 3466 500 
L 2363 500 
L 2363 3381 
L 634 3381 
z
M 1709 4269 
Q 1709 4128 1795 4034 
Q 1881 3941 2056 3941 
Q 2228 3941 2315 4034 
Q 2403 4128 2403 4269 
Q 2403 4347 2378 4412 
Q 2353 4478 2303 4522 
Q 2263 4563 2200 4586 
Q 2138 4609 2056 4609 
Q 1975 4609 1911 4586 
Q 1847 4563 1806 4522 
Q 1756 4475 1732 4409 
Q 1709 4344 1709 4269 
z
" transform="scale(0.015625)"/>
      <path id="RobotoMono-Regular-63" d="M 1984 406 
Q 1713 406 1530 514 
Q 1347 622 1238 797 
Q 1125 969 1076 1186 
Q 1028 1403 1028 1625 
L 1028 1756 
Q 1028 1975 1076 2190 
Q 1125 2406 1238 2581 
Q 1350 2753 1533 2861 
Q 1716 2969 1984 2969 
Q 2159 2969 2311 2909 
Q 2463 2850 2572 2747 
Q 2681 2644 2745 2508 
Q 2809 2372 2813 2219 
L 3359 2219 
Q 3359 2475 3256 2700 
Q 3153 2925 2972 3091 
Q 2788 3253 2536 3348 
Q 2284 3444 1984 3444 
Q 1600 3444 1312 3306 
Q 1025 3169 834 2938 
Q 641 2703 544 2397 
Q 447 2091 447 1756 
L 447 1625 
Q 447 1288 544 983 
Q 641 678 834 447 
Q 1025 213 1312 75 
Q 1600 -63 1984 -63 
Q 2253 -63 2500 29 
Q 2747 122 2938 278 
Q 3128 431 3242 636 
Q 3356 841 3359 1066 
L 2813 1066 
Q 2809 925 2739 804 
Q 2669 684 2553 597 
Q 2438 506 2289 456 
Q 2141 406 1984 406 
z
" transform="scale(0.015625)"/>
      <path id="RobotoMono-Regular-6b" d="M 1556 1578 
L 2797 0 
L 3531 0 
L 1953 1972 
L 3322 3381 
L 2619 3381 
L 1509 2269 
L 1131 1863 
L 1131 4800 
L 550 4800 
L 550 0 
L 1131 0 
L 1131 1169 
L 1556 1578 
z
" transform="scale(0.015625)"/>
      <path id="RobotoMono-Regular-62" d="M 3409 1653 
L 3409 1719 
Q 3409 1984 3365 2223 
Q 3322 2463 3238 2659 
Q 3156 2834 3050 2976 
Q 2944 3119 2809 3219 
Q 2659 3325 2475 3384 
Q 2291 3444 2072 3444 
Q 1897 3444 1747 3409 
Q 1597 3375 1472 3309 
Q 1372 3256 1284 3182 
Q 1197 3109 1125 3019 
L 1125 4800 
L 547 4800 
L 547 0 
L 1078 0 
L 1106 384 
Q 1163 313 1225 253 
Q 1288 194 1356 144 
Q 1500 44 1679 -9 
Q 1859 -63 2078 -63 
Q 2269 -63 2433 -16 
Q 2597 31 2734 116 
Q 2925 238 3061 423 
Q 3197 609 3281 844 
Q 3344 1022 3376 1226 
Q 3409 1431 3409 1653 
z
M 2831 1719 
L 2831 1653 
Q 2831 1503 2812 1359 
Q 2794 1216 2753 1091 
Q 2703 925 2618 790 
Q 2534 656 2409 569 
Q 2316 500 2197 464 
Q 2078 428 1934 428 
Q 1784 428 1659 467 
Q 1534 506 1434 578 
Q 1334 650 1257 745 
Q 1181 841 1125 953 
L 1125 2431 
Q 1178 2544 1254 2639 
Q 1331 2734 1431 2806 
Q 1528 2875 1653 2914 
Q 1778 2953 1928 2953 
Q 2066 2953 2178 2922 
Q 2291 2891 2381 2834 
Q 2513 2756 2603 2618 
Q 2694 2481 2750 2316 
Q 2791 2181 2811 2029 
Q 2831 1878 2831 1719 
z
" transform="scale(0.015625)"/>
      <path id="RobotoMono-Regular-72" d="M 2759 3444 
Q 2391 3444 2102 3283 
Q 1813 3122 1606 2844 
L 1603 2928 
L 1578 3381 
L 1028 3381 
L 1028 0 
L 1609 0 
L 1609 2169 
Q 1666 2325 1752 2451 
Q 1838 2578 1953 2666 
Q 2081 2766 2253 2817 
Q 2425 2869 2638 2869 
Q 2803 2869 2954 2851 
Q 3106 2834 3275 2797 
L 3353 3363 
Q 3266 3400 3092 3422 
Q 2919 3444 2759 3444 
z
" transform="scale(0.015625)"/>
      <path id="RobotoMono-Regular-6f" d="M 381 1722 
L 381 1653 
Q 381 1288 487 975 
Q 594 663 794 431 
Q 991 200 1277 68 
Q 1563 -63 1922 -63 
Q 2278 -63 2562 68 
Q 2847 200 3047 431 
Q 3244 663 3350 975 
Q 3456 1288 3456 1653 
L 3456 1722 
Q 3456 2088 3350 2402 
Q 3244 2716 3047 2947 
Q 2847 3178 2561 3311 
Q 2275 3444 1916 3444 
Q 1559 3444 1275 3311 
Q 991 3178 794 2947 
Q 594 2716 487 2402 
Q 381 2088 381 1722 
z
M 959 1653 
L 959 1722 
Q 959 1969 1018 2195 
Q 1078 2422 1200 2594 
Q 1319 2766 1497 2867 
Q 1675 2969 1916 2969 
Q 2156 2969 2336 2867 
Q 2516 2766 2638 2594 
Q 2756 2422 2817 2195 
Q 2878 1969 2878 1722 
L 2878 1653 
Q 2878 1403 2818 1176 
Q 2759 950 2641 778 
Q 2519 606 2339 506 
Q 2159 406 1922 406 
Q 1681 406 1500 506 
Q 1319 606 1200 778 
Q 1078 950 1018 1176 
Q 959 1403 959 1653 
z
" transform="scale(0.015625)"/>
      <path id="RobotoMono-Regular-77" d="M 869 0 
L 1325 0 
L 1847 2072 
L 1931 2597 
L 2019 2072 
L 2547 0 
L 3003 0 
L 3722 3381 
L 3209 3381 
L 2834 1225 
L 2750 694 
L 2659 1225 
L 2122 3381 
L 1750 3381 
L 1209 1225 
L 1125 741 
L 1056 1225 
L 663 3381 
L 150 3381 
L 869 0 
z
" transform="scale(0.015625)"/>
      <path id="RobotoMono-Regular-6e" d="M 544 0 
L 1122 0 
L 1122 2425 
Q 1181 2534 1261 2625 
Q 1341 2716 1434 2784 
Q 1550 2863 1687 2908 
Q 1825 2953 1984 2953 
Q 2169 2953 2311 2909 
Q 2453 2866 2553 2769 
Q 2650 2672 2700 2515 
Q 2750 2359 2750 2134 
L 2750 0 
L 3328 0 
L 3328 2147 
Q 3328 2484 3245 2729 
Q 3163 2975 3009 3134 
Q 2856 3294 2639 3369 
Q 2422 3444 2156 3444 
Q 1959 3441 1782 3386 
Q 1606 3331 1456 3231 
Q 1356 3166 1267 3077 
Q 1178 2988 1103 2881 
L 1063 3381 
L 544 3381 
L 544 0 
z
" transform="scale(0.015625)"/>
      <path id="RobotoMono-Regular-66" d="M 1406 0 
L 1988 0 
L 1988 2934 
L 3291 2934 
L 3291 3381 
L 1988 3381 
L 1988 3619 
Q 1988 3831 2042 3990 
Q 2097 4150 2203 4250 
Q 2303 4347 2454 4395 
Q 2606 4444 2803 4444 
Q 2997 4444 3167 4411 
Q 3338 4378 3466 4334 
L 3534 4813 
Q 3453 4834 3375 4851 
Q 3297 4869 3219 4884 
Q 3100 4906 2978 4920 
Q 2856 4934 2731 4934 
Q 2431 4934 2187 4850 
Q 1944 4766 1772 4600 
Q 1597 4434 1501 4189 
Q 1406 3944 1406 3619 
L 1406 3381 
L 475 3381 
L 475 2934 
L 1406 2934 
L 1406 0 
z
" transform="scale(0.015625)"/>
      <path id="RobotoMono-Regular-78" d="M 1941 2128 
L 1047 3381 
L 378 3381 
L 1638 1709 
L 344 0 
L 1019 0 
L 1953 1288 
L 2888 0 
L 3556 0 
L 2263 1709 
L 3522 3381 
L 2844 3381 
L 1941 2128 
z
" transform="scale(0.015625)"/>
      <path id="RobotoMono-Regular-6a" d="M 934 3381 
L 934 2878 
L 2063 2878 
L 2063 -22 
Q 2063 -263 2002 -427 
Q 1941 -591 1834 -691 
Q 1728 -791 1584 -833 
Q 1441 -875 1278 -875 
Q 1234 -875 1157 -873 
Q 1081 -872 1000 -866 
Q 916 -863 834 -855 
Q 753 -847 700 -838 
L 659 -1313 
Q 738 -1325 809 -1336 
Q 881 -1347 953 -1353 
Q 1041 -1359 1131 -1362 
Q 1222 -1366 1319 -1366 
Q 1631 -1366 1876 -1277 
Q 2122 -1188 2294 -1016 
Q 2463 -847 2552 -597 
Q 2641 -347 2641 -22 
L 2641 3381 
L 934 3381 
z
M 1981 4272 
Q 1981 4131 2065 4036 
Q 2150 3941 2325 3941 
Q 2500 3941 2587 4036 
Q 2675 4131 2675 4272 
Q 2675 4413 2587 4511 
Q 2500 4609 2325 4609 
Q 2150 4609 2065 4511 
Q 1981 4413 1981 4272 
z
" transform="scale(0.015625)"/>
      <path id="RobotoMono-Regular-6d" d="M 809 3381 
L 291 3381 
L 291 0 
L 841 0 
L 841 2691 
Q 859 2741 889 2784 
Q 919 2828 959 2863 
Q 1013 2906 1089 2929 
Q 1166 2953 1269 2953 
Q 1363 2953 1433 2929 
Q 1503 2906 1550 2856 
Q 1600 2803 1623 2722 
Q 1647 2641 1647 2534 
L 1647 0 
L 2197 0 
L 2197 2531 
Q 2197 2550 2197 2564 
Q 2197 2578 2197 2594 
Q 2206 2672 2234 2736 
Q 2263 2800 2313 2850 
Q 2363 2897 2438 2925 
Q 2513 2953 2616 2953 
Q 2713 2953 2786 2928 
Q 2859 2903 2909 2853 
Q 2956 2800 2981 2719 
Q 3006 2638 3006 2531 
L 3006 0 
L 3556 0 
L 3556 2525 
Q 3556 2769 3500 2948 
Q 3444 3128 3338 3241 
Q 3241 3341 3100 3392 
Q 2959 3444 2784 3444 
Q 2656 3441 2548 3409 
Q 2441 3378 2353 3325 
Q 2284 3278 2225 3215 
Q 2166 3153 2122 3081 
Q 2088 3159 2039 3221 
Q 1991 3284 1931 3328 
Q 1850 3384 1742 3414 
Q 1634 3444 1500 3444 
Q 1263 3441 1095 3341 
Q 928 3241 825 3063 
L 809 3381 
z
" transform="scale(0.015625)"/>
      <path id="RobotoMono-Regular-70" d="M 541 -1300 
L 1119 -1300 
L 1119 325 
Q 1181 256 1253 198 
Q 1325 141 1406 94 
Q 1541 19 1708 -22 
Q 1875 -63 2069 -63 
Q 2388 -63 2636 68 
Q 2884 200 3053 431 
Q 3222 663 3309 977 
Q 3397 1291 3397 1653 
L 3397 1719 
Q 3397 2097 3309 2414 
Q 3222 2731 3053 2959 
Q 2884 3188 2634 3316 
Q 2384 3444 2059 3444 
Q 1875 3444 1714 3405 
Q 1553 3366 1422 3291 
Q 1328 3241 1247 3170 
Q 1166 3100 1097 3013 
L 1069 3381 
L 541 3381 
L 541 -1300 
z
M 2819 1719 
L 2819 1653 
Q 2819 1406 2764 1181 
Q 2709 956 2597 784 
Q 2484 613 2309 511 
Q 2134 409 1894 409 
Q 1744 409 1620 446 
Q 1497 484 1397 550 
Q 1309 606 1240 687 
Q 1172 769 1119 863 
L 1119 2491 
Q 1178 2597 1256 2684 
Q 1334 2772 1434 2831 
Q 1525 2891 1639 2922 
Q 1753 2953 1888 2953 
Q 2131 2953 2306 2853 
Q 2481 2753 2597 2584 
Q 2709 2413 2764 2189 
Q 2819 1966 2819 1719 
z
" transform="scale(0.015625)"/>
      <path id="RobotoMono-Regular-73" d="M 2791 897 
Q 2791 816 2759 744 
Q 2728 672 2669 613 
Q 2572 516 2400 461 
Q 2228 406 1997 406 
Q 1850 406 1700 437 
Q 1550 469 1428 544 
Q 1303 619 1220 741 
Q 1138 863 1125 1041 
L 547 1041 
Q 547 825 645 625 
Q 744 425 931 275 
Q 1116 122 1384 29 
Q 1653 -63 1997 -63 
Q 2297 -63 2550 9 
Q 2803 81 2984 213 
Q 3166 344 3267 528 
Q 3369 713 3369 938 
Q 3369 1147 3280 1306 
Q 3191 1466 3022 1588 
Q 2853 1706 2606 1792 
Q 2359 1878 2047 1944 
Q 1809 1991 1654 2041 
Q 1500 2091 1409 2153 
Q 1316 2216 1278 2294 
Q 1241 2372 1241 2472 
Q 1241 2569 1287 2659 
Q 1334 2750 1428 2819 
Q 1519 2888 1658 2928 
Q 1797 2969 1981 2969 
Q 2159 2969 2301 2919 
Q 2444 2869 2544 2788 
Q 2644 2706 2700 2601 
Q 2756 2497 2756 2388 
L 3334 2388 
Q 3334 2609 3239 2801 
Q 3144 2994 2969 3138 
Q 2794 3281 2544 3362 
Q 2294 3444 1981 3444 
Q 1691 3444 1448 3366 
Q 1206 3288 1031 3153 
Q 856 3019 759 2839 
Q 663 2659 663 2453 
Q 663 2244 756 2086 
Q 850 1928 1022 1813 
Q 1191 1694 1430 1609 
Q 1669 1525 1959 1466 
Q 2197 1419 2356 1361 
Q 2516 1303 2613 1234 
Q 2709 1166 2750 1083 
Q 2791 1000 2791 897 
z
" transform="scale(0.015625)"/>
      <path id="RobotoMono-Regular-76" d="M 1697 0 
L 2138 0 
L 3516 3381 
L 2925 3381 
L 1978 831 
L 1922 622 
L 1869 831 
L 900 3381 
L 306 3381 
L 1697 0 
z
" transform="scale(0.015625)"/>
      <path id="RobotoMono-Regular-74" d="M 1913 4200 
L 1331 4200 
L 1331 3381 
L 444 3381 
L 444 2934 
L 1331 2934 
L 1331 1097 
Q 1331 784 1414 564 
Q 1497 344 1641 206 
Q 1784 66 1979 1 
Q 2175 -63 2400 -63 
Q 2534 -63 2670 -50 
Q 2806 -38 2928 -13 
Q 3050 9 3153 42 
Q 3256 75 3328 119 
L 3247 528 
Q 3194 516 3111 498 
Q 3028 481 2934 466 
Q 2838 450 2738 439 
Q 2638 428 2544 428 
Q 2416 428 2302 459 
Q 2188 491 2100 569 
Q 2013 644 1963 772 
Q 1913 900 1913 1097 
L 1913 2934 
L 3200 2934 
L 3200 3381 
L 1913 3381 
L 1913 4200 
z
" transform="scale(0.015625)"/>
      <path id="RobotoMono-Regular-6c" d="M 634 4800 
L 634 4297 
L 1784 4297 
L 1784 500 
L 634 500 
L 634 0 
L 3466 0 
L 3466 500 
L 2363 500 
L 2363 4800 
L 634 4800 
z
" transform="scale(0.015625)"/>
      <path id="RobotoMono-Regular-61" d="M 2766 0 
L 3369 0 
L 3369 50 
Q 3313 191 3281 380 
Q 3250 569 3250 738 
L 3250 2309 
Q 3250 2594 3147 2806 
Q 3044 3019 2866 3163 
Q 2684 3303 2437 3373 
Q 2191 3444 1903 3444 
Q 1588 3444 1339 3356 
Q 1091 3269 919 3128 
Q 744 2984 651 2806 
Q 559 2628 556 2444 
L 1138 2444 
Q 1138 2550 1189 2648 
Q 1241 2747 1334 2819 
Q 1428 2891 1564 2934 
Q 1700 2978 1872 2978 
Q 2056 2978 2204 2931 
Q 2353 2884 2456 2800 
Q 2559 2713 2615 2591 
Q 2672 2469 2672 2316 
L 2672 2050 
L 2041 2050 
Q 1688 2050 1402 1981 
Q 1116 1913 913 1775 
Q 709 1634 598 1425 
Q 488 1216 488 938 
Q 488 725 570 542 
Q 653 359 806 228 
Q 956 94 1173 15 
Q 1391 -63 1659 -63 
Q 1825 -63 1972 -28 
Q 2119 6 2250 66 
Q 2378 125 2486 203 
Q 2594 281 2681 369 
Q 2691 263 2711 164 
Q 2731 66 2766 0 
z
M 1744 441 
Q 1575 441 1447 484 
Q 1319 528 1234 606 
Q 1150 681 1108 787 
Q 1066 894 1066 1019 
Q 1066 1150 1114 1253 
Q 1163 1356 1256 1431 
Q 1388 1538 1611 1589 
Q 1834 1641 2134 1641 
L 2672 1641 
L 2672 956 
Q 2622 856 2534 764 
Q 2447 672 2328 600 
Q 2206 528 2059 484 
Q 1913 441 1744 441 
z
" transform="scale(0.015625)"/>
      <path id="RobotoMono-Regular-7a" d="M 1238 472 
L 3278 2972 
L 3278 3381 
L 528 3381 
L 528 2903 
L 2519 2903 
L 500 425 
L 500 0 
L 3391 0 
L 3391 472 
L 1238 472 
z
" transform="scale(0.015625)"/>
      <path id="RobotoMono-Regular-79" d="M 816 -1366 
Q 1044 -1366 1219 -1281 
Q 1394 -1197 1525 -1072 
Q 1656 -947 1748 -800 
Q 1841 -653 1900 -522 
L 3616 3381 
L 2969 3381 
L 2097 1188 
L 1938 791 
L 1788 1200 
L 859 3381 
L 213 3381 
L 1669 159 
L 1438 -291 
Q 1406 -353 1351 -450 
Q 1297 -547 1222 -638 
Q 1144 -728 1045 -793 
Q 947 -859 828 -859 
Q 784 -859 707 -854 
Q 631 -850 553 -844 
L 459 -1316 
Q 516 -1328 625 -1347 
Q 734 -1366 816 -1366 
z
" transform="scale(0.015625)"/>
      <path id="RobotoMono-Regular-64" d="M 434 1719 
L 434 1653 
Q 434 1291 531 977 
Q 628 663 803 431 
Q 978 200 1226 68 
Q 1475 -63 1781 -63 
Q 2094 -63 2328 43 
Q 2563 150 2731 356 
L 2756 0 
L 3288 0 
L 3288 4800 
L 2709 4800 
L 2709 3047 
Q 2544 3241 2317 3342 
Q 2091 3444 1788 3444 
Q 1478 3444 1228 3316 
Q 978 3188 803 2959 
Q 625 2731 529 2414 
Q 434 2097 434 1719 
z
M 1013 1653 
L 1013 1719 
Q 1013 1966 1066 2189 
Q 1119 2413 1231 2584 
Q 1341 2753 1514 2853 
Q 1688 2953 1931 2953 
Q 2216 2953 2406 2820 
Q 2597 2688 2709 2481 
L 2709 913 
Q 2597 691 2406 559 
Q 2216 428 1925 428 
Q 1684 428 1512 526 
Q 1341 625 1231 794 
Q 1119 963 1066 1184 
Q 1013 1406 1013 1653 
z
" transform="scale(0.015625)"/>
      <path id="RobotoMono-Regular-67" d="M 438 1719 
L 438 1653 
Q 438 1291 531 977 
Q 625 663 800 431 
Q 972 200 1222 68 
Q 1472 -63 1781 -63 
Q 1966 -63 2125 -23 
Q 2284 16 2416 88 
Q 2500 134 2573 196 
Q 2647 259 2713 334 
L 2713 44 
Q 2713 -175 2650 -344 
Q 2588 -513 2472 -625 
Q 2353 -741 2187 -800 
Q 2022 -859 1816 -859 
Q 1700 -859 1584 -836 
Q 1469 -813 1353 -759 
Q 1238 -706 1125 -617 
Q 1013 -528 906 -400 
L 606 -747 
Q 722 -913 883 -1025 
Q 1044 -1138 1219 -1203 
Q 1391 -1272 1559 -1301 
Q 1728 -1331 1859 -1331 
Q 2178 -1331 2440 -1237 
Q 2703 -1144 2894 -963 
Q 3081 -781 3186 -522 
Q 3291 -263 3291 72 
L 3291 3381 
L 2766 3381 
L 2738 3013 
Q 2678 3088 2611 3150 
Q 2544 3213 2469 3259 
Q 2331 3350 2161 3397 
Q 1991 3444 1788 3444 
Q 1472 3444 1222 3316 
Q 972 3188 797 2959 
Q 622 2731 530 2414 
Q 438 2097 438 1719 
z
M 1016 1653 
L 1016 1719 
Q 1016 1966 1067 2189 
Q 1119 2413 1231 2584 
Q 1341 2753 1514 2853 
Q 1688 2953 1931 2953 
Q 2075 2953 2194 2917 
Q 2313 2881 2409 2819 
Q 2506 2753 2581 2665 
Q 2656 2578 2713 2472 
L 2713 922 
Q 2656 813 2581 722 
Q 2506 631 2413 566 
Q 2316 500 2195 464 
Q 2075 428 1925 428 
Q 1684 428 1512 526 
Q 1341 625 1231 794 
Q 1119 963 1067 1184 
Q 1016 1406 1016 1653 
z
" transform="scale(0.015625)"/>
     </defs>
     <use xlink:href="#RobotoMono-Regular-54"/>
     <use xlink:href="#RobotoMono-Regular-68" x="60.009766"/>
     <use xlink:href="#RobotoMono-Regular-65" x="120.019531"/>
     <use xlink:href="#RobotoMono-Regular-20" x="180.029297"/>
     <use xlink:href="#RobotoMono-Regular-71" x="240.039062"/>
     <use xlink:href="#RobotoMono-Regular-75" x="300.048828"/>
     <use xlink:href="#RobotoMono-Regular-69" x="360.058594"/>
     <use xlink:href="#RobotoMono-Regular-63" x="420.068359"/>
     <use xlink:href="#RobotoMono-Regular-6b" x="480.078125"/>
     <use xlink:href="#RobotoMono-Regular-20" x="540.087891"/>
     <use xlink:href="#RobotoMono-Regular-62" x="600.097656"/>
     <use xlink:href="#RobotoMono-Regular-72" x="660.107422"/>
     <use xlink:href="#RobotoMono-Regular-6f" x="720.117188"/>
     <use xlink:href="#RobotoMono-Regular-77" x="780.126953"/>
     <use xlink:href="#RobotoMono-Regular-6e" x="840.136719"/>
     <use xlink:href="#RobotoMono-Regular-20" x="900.146484"/>
     <use xlink:href="#RobotoMono-Regular-66" x="960.15625"/>
     <use xlink:href="#RobotoMono-Regular-6f" x="1020.166016"/>
     <use xlink:href="#RobotoMono-Regular-78" x="1080.175781"/>
     <use xlink:href="#RobotoMono-Regular-20" x="1140.185547"/>
     <use xlink:href="#RobotoMono-Regular-6a" x="1200.195312"/>
     <use xlink:href="#RobotoMono-Regular-75" x="1260.205078"/>
     <use xlink:href="#RobotoMono-Regular-6d" x="1320.214844"/>
     <use xlink:href="#RobotoMono-Regular-70" x="1380.224609"/>
     <use xlink:href="#RobotoMono-Regular-73" x="1440.234375"/>
     <use xlink:href="#RobotoMono-Regular-20" x="1500.244141"/>
     <use xlink:href="#RobotoMono-Regular-6f" x="1560.253906"/>
     <use xlink:href="#RobotoMono-Regular-76" x="1620.263672"/>
     <use xlink:href="#RobotoMono-Regular-65" x="1680.273438"/>
     <use xlink:href="#RobotoMono-Regular-72" x="1740.283203"/>
     <use xlink:href="#RobotoMono-Regular-20" x="1800.292969"/>
     <use xlink:href="#RobotoMono-Regular-74" x="1860.302734"/>
     <use xlink:href="#RobotoMono-Regular-68" x="1920.3125"/>
     <use xlink:href="#RobotoMono-Regular-65" x="1980.322266"/>
     <use xlink:href="#RobotoMono-Regular-20" x="2040.332031"/>
     <use xlink:href="#RobotoMono-Regular-6c" x="2100.341797"/>
     <use xlink:href="#RobotoMono-Regular-61" x="2160.351562"/>
     <use xlink:href="#RobotoMono-Regular-7a" x="2220.361328"/>
     <use xlink:href="#RobotoMono-Regular-79" x="2280.371094"/>
     <use xlink:href="#RobotoMono-Regular-20" x="2340.380859"/>
     <use xlink:href="#RobotoMono-Regular-64" x="2400.390625"/>
     <use xlink:href="#RobotoMono-Regular-6f" x="2460.400391"/>
     <use xlink:href="#RobotoMono-Regular-67" x="2520.410156"/>
     <use xlink:href="#RobotoMono-Regular-2e" x="2580.419922"/>
    </g>
   </g>
   <g id="text_11">
    <!-- an English-language pangram -->
    <g transform="translate(169.08875 28.8) scale(0.16 -0.16)">
     <defs>
      <path id="RobotoMono-Regular-45" d="M 3047 2103 
L 3047 2594 
L 1147 2594 
L 1147 4056 
L 3334 4056 
L 3334 4550 
L 569 4550 
L 569 0 
L 3363 0 
L 3363 491 
L 1147 491 
L 1147 2103 
L 3047 2103 
z
" transform="scale(0.015625)"/>
      <path id="RobotoMono-Regular-2d" d="M 3072 1753 
L 3072 2228 
L 681 2228 
L 681 1753 
L 3072 1753 
z
" transform="scale(0.015625)"/>
     </defs>
     <use xlink:href="#RobotoMono-Regular-61"/>
     <use xlink:href="#RobotoMono-Regular-6e" x="60.009766"/>
     <use xlink:href="#RobotoMono-Regular-20" x="120.019531"/>
     <use xlink:href="#RobotoMono-Regular-45" x="180.029297"/>
     <use xlink:href="#RobotoMono-Regular-6e" x="240.039062"/>
     <use xlink:href="#RobotoMono-Regular-67" x="300.048828"/>
     <use xlink:href="#RobotoMono-Regular-6c" x="360.058594"/>
     <use xlink:href="#RobotoMono-Regular-69" x="420.068359"/>
     <use xlink:href="#RobotoMono-Regular-73" x="480.078125"/>
     <use xlink:href="#RobotoMono-Regular-68" x="540.087891"/>
     <use xlink:href="#RobotoMono-Regular-2d" x="600.097656"/>
     <use xlink:href="#RobotoMono-Regular-6c" x="660.107422"/>
     <use xlink:href="#RobotoMono-Regular-61" x="720.117188"/>
     <use xlink:href="#RobotoMono-Regular-6e" x="780.126953"/>
     <use xlink:href="#RobotoMono-Regular-67" x="840.136719"/>
     <use xlink:href="#RobotoMono-Regular-75" x="900.146484"/>
     <use xlink:href="#RobotoMono-Regular-61" x="960.15625"/>
     <use xlink:href="#RobotoMono-Regular-67" x="1020.166016"/>
     <use xlink:href="#RobotoMono-Regular-65" x="1080.175781"/>
     <use xlink:href="#RobotoMono-Regular-20" x="1140.185547"/>
     <use xlink:href="#RobotoMono-Regular-70" x="1200.195312"/>
     <use xlink:href="#RobotoMono-Regular-61" x="1260.205078"/>
     <use xlink:href="#RobotoMono-Regular-6e" x="1320.214844"/>
     <use xlink:href="#RobotoMono-Regular-67" x="1380.224609"/>
     <use xlink:href="#RobotoMono-Regular-72" x="1440.234375"/>
     <use xlink:href="#RobotoMono-Regular-61" x="1500.244141"/>
     <use xlink:href="#RobotoMono-Regular-6d" x="1560.253906"/>
    </g>
   </g>
  </g>
 </g>
</svg>
