<?xml version="1.0" encoding="utf-8" standalone="no"?>
<!DOCTYPE svg PUBLIC "-//W3C//DTD SVG 1.1//EN"
  "http://www.w3.org/Graphics/SVG/1.1/DTD/svg11.dtd">
<svg xmlns:xlink="http://www.w3.org/1999/xlink" width="349.2pt" height="191.68pt" viewBox="0 0 349.2 191.68" xmlns="http://www.w3.org/2000/svg" version="1.1">
 <metadata>
  <rdf:RDF xmlns:dc="http://purl.org/dc/elements/1.1/" xmlns:cc="http://creativecommons.org/ns#" xmlns:rdf="http://www.w3.org/1999/02/22-rdf-syntax-ns#">
   <cc:Work>
    <dc:type rdf:resource="http://purl.org/dc/dcmitype/StillImage"/>
    <dc:date>2024-03-01T18:25:34.005471</dc:date>
    <dc:format>image/svg+xml</dc:format>
    <dc:creator>
     <cc:Agent>
      <dc:title>Matplotlib v3.8.3, https://matplotlib.org/</dc:title>
     </cc:Agent>
    </dc:creator>
   </cc:Work>
  </rdf:RDF>
 </metadata>
 <defs>
  <style type="text/css">*{stroke-linejoin: round; stroke-linecap: butt}</style>
 </defs>
 <g id="figure_1">
  <g id="patch_1">
   <path d="M 0 191.68 
L 349.2 191.68 
L 349.2 0 
L 0 0 
L 0 191.68 
z
" style="fill: none"/>
  </g>
  <g id="axes_1">
   <g id="patch_2">
    <path d="M 7.2 174.6 
L 174.6 174.6 
L 174.6 7.2 
L 7.2 7.2 
L 7.2 174.6 
z
" style="fill: none"/>
   </g>
   <g id="patch_3">
    <path d="M 153.480037 122.786121 
L 89.247981 8.372423 
L 23.162755 138.071981 
L 153.480037 122.786121 
z
" clip-path="url(#pf249bd6ddf)" style="fill: none; stroke: #ffffff; stroke-linejoin: miter"/>
   </g>
   <g id="patch_4">
    <path d="M 147.721484 132.183225 
L 102.178477 9.130042 
L 16.617389 126.894776 
L 147.721484 132.183225 
z
" clip-path="url(#pf249bd6ddf)" style="fill: none; stroke: #cddfdf; stroke-linejoin: miter"/>
   </g>
   <g id="patch_5">
    <path d="M 140.563798 140.563798 
L 114.83126 11.901108 
L 11.901108 114.83126 
L 140.563798 140.563798 
z
" clip-path="url(#pf249bd6ddf)" style="fill: none; stroke: #9fbdbf; stroke-linejoin: miter"/>
   </g>
   <g id="patch_6">
    <path d="M 132.183225 147.721484 
L 126.894776 16.617389 
L 9.130042 102.178477 
L 132.183225 147.721484 
z
" clip-path="url(#pf249bd6ddf)" style="fill: none; stroke: #7f919f; stroke-linejoin: miter"/>
   </g>
   <g id="patch_7">
    <path d="M 122.786121 153.480037 
L 138.071981 23.162755 
L 8.372423 89.247981 
L 122.786121 153.480037 
z
" clip-path="url(#pf249bd6ddf)" style="fill: none; stroke: #60657f; stroke-linejoin: miter"/>
   </g>
   <g id="patch_8">
    <path d="M 112.603876 157.697661 
L 148.087656 31.376037 
L 9.646907 76.358163 
L 112.603876 157.697661 
z
" clip-path="url(#pf249bd6ddf)" style="fill: none; stroke: #404059; stroke-linejoin: miter"/>
   </g>
   <g id="patch_9">
    <path d="M 101.887209 160.270505 
L 156.69518 41.054996 
L 12.922112 63.826413 
L 101.887209 160.270505 
z
" clip-path="url(#pf249bd6ddf)" style="fill: none; stroke: #20202c; stroke-linejoin: miter"/>
   </g>
   <g id="patch_10">
    <path d="M 90.9 161.135217 
L 163.682609 51.961304 
L 18.117391 51.961304 
L 90.9 161.135217 
z
" clip-path="url(#pf249bd6ddf)" style="fill: none; stroke: #000000; stroke-linejoin: miter"/>
   </g>
   <g id="matplotlib.axis_1">
    <g id="text_1">
     <!-- Made with Human Intelligence and Matplotlib -->
     <g transform="translate(13.237969 183.190937) scale(0.06 -0.06)">
      <defs>
       <path id="DejaVuSansMono-4d" d="M 269 4666 
L 1113 4666 
L 1919 2291 
L 2731 4666 
L 3578 4666 
L 3578 0 
L 2994 0 
L 2994 4122 
L 2163 1663 
L 1684 1663 
L 850 4122 
L 850 0 
L 269 0 
L 269 4666 
z
" transform="scale(0.015625)"/>
       <path id="DejaVuSansMono-61" d="M 2194 1759 
L 2003 1759 
Q 1500 1759 1245 1582 
Q 991 1406 991 1056 
Q 991 741 1181 566 
Q 1372 391 1709 391 
Q 2184 391 2456 720 
Q 2728 1050 2731 1631 
L 2731 1759 
L 2194 1759 
z
M 3309 1997 
L 3309 0 
L 2731 0 
L 2731 519 
Q 2547 206 2267 57 
Q 1988 -91 1588 -91 
Q 1053 -91 734 211 
Q 416 513 416 1019 
Q 416 1603 808 1906 
Q 1200 2209 1959 2209 
L 2731 2209 
L 2731 2300 
Q 2728 2719 2518 2908 
Q 2309 3097 1850 3097 
Q 1556 3097 1256 3012 
Q 956 2928 672 2766 
L 672 3341 
Q 991 3463 1283 3523 
Q 1575 3584 1850 3584 
Q 2284 3584 2592 3456 
Q 2900 3328 3091 3072 
Q 3209 2916 3259 2686 
Q 3309 2456 3309 1997 
z
" transform="scale(0.015625)"/>
       <path id="DejaVuSansMono-64" d="M 2681 3053 
L 2681 4863 
L 3256 4863 
L 3256 0 
L 2681 0 
L 2681 441 
Q 2538 181 2298 45 
Q 2059 -91 1747 -91 
Q 1113 -91 748 401 
Q 384 894 384 1759 
Q 384 2613 750 3098 
Q 1116 3584 1747 3584 
Q 2063 3584 2303 3448 
Q 2544 3313 2681 3053 
z
M 991 1747 
Q 991 1078 1203 737 
Q 1416 397 1831 397 
Q 2247 397 2464 740 
Q 2681 1084 2681 1747 
Q 2681 2413 2464 2755 
Q 2247 3097 1831 3097 
Q 1416 3097 1203 2756 
Q 991 2416 991 1747 
z
" transform="scale(0.015625)"/>
       <path id="DejaVuSansMono-65" d="M 3475 1894 
L 3475 1613 
L 984 1613 
L 984 1594 
Q 984 1022 1282 709 
Q 1581 397 2125 397 
Q 2400 397 2700 484 
Q 3000 572 3341 750 
L 3341 178 
Q 3013 44 2708 -23 
Q 2403 -91 2119 -91 
Q 1303 -91 843 398 
Q 384 888 384 1747 
Q 384 2584 834 3084 
Q 1284 3584 2034 3584 
Q 2703 3584 3089 3131 
Q 3475 2678 3475 1894 
z
M 2900 2063 
Q 2888 2569 2661 2833 
Q 2434 3097 2009 3097 
Q 1594 3097 1325 2822 
Q 1056 2547 1006 2059 
L 2900 2063 
z
" transform="scale(0.015625)"/>
       <path id="DejaVuSansMono-20" transform="scale(0.015625)"/>
       <path id="DejaVuSansMono-77" d="M 0 3500 
L 569 3500 
L 1178 672 
L 1678 2478 
L 2169 2478 
L 2675 672 
L 3284 3500 
L 3853 3500 
L 3034 0 
L 2484 0 
L 1925 1919 
L 1369 0 
L 819 0 
L 0 3500 
z
" transform="scale(0.015625)"/>
       <path id="DejaVuSansMono-69" d="M 800 3500 
L 2272 3500 
L 2272 447 
L 3413 447 
L 3413 0 
L 556 0 
L 556 447 
L 1697 447 
L 1697 3053 
L 800 3053 
L 800 3500 
z
M 1697 4863 
L 2272 4863 
L 2272 4134 
L 1697 4134 
L 1697 4863 
z
" transform="scale(0.015625)"/>
       <path id="DejaVuSansMono-74" d="M 1919 4494 
L 1919 3500 
L 3225 3500 
L 3225 3053 
L 1919 3053 
L 1919 1153 
Q 1919 766 2066 612 
Q 2213 459 2578 459 
L 3225 459 
L 3225 0 
L 2522 0 
Q 1875 0 1609 259 
Q 1344 519 1344 1153 
L 1344 3053 
L 409 3053 
L 409 3500 
L 1344 3500 
L 1344 4494 
L 1919 4494 
z
" transform="scale(0.015625)"/>
       <path id="DejaVuSansMono-68" d="M 3284 2169 
L 3284 0 
L 2706 0 
L 2706 2169 
Q 2706 2641 2540 2862 
Q 2375 3084 2022 3084 
Q 1619 3084 1401 2798 
Q 1184 2513 1184 1978 
L 1184 0 
L 609 0 
L 609 4863 
L 1184 4863 
L 1184 2975 
Q 1338 3275 1600 3429 
Q 1863 3584 2222 3584 
Q 2756 3584 3020 3232 
Q 3284 2881 3284 2169 
z
" transform="scale(0.015625)"/>
       <path id="DejaVuSansMono-48" d="M 428 4666 
L 1063 4666 
L 1063 2753 
L 2791 2753 
L 2791 4666 
L 3425 4666 
L 3425 0 
L 2791 0 
L 2791 2222 
L 1063 2222 
L 1063 0 
L 428 0 
L 428 4666 
z
" transform="scale(0.015625)"/>
       <path id="DejaVuSansMono-75" d="M 609 1325 
L 609 3494 
L 1184 3494 
L 1184 1325 
Q 1184 853 1351 631 
Q 1519 409 1869 409 
Q 2275 409 2490 695 
Q 2706 981 2706 1516 
L 2706 3494 
L 3284 3494 
L 3284 0 
L 2706 0 
L 2706 525 
Q 2553 222 2289 65 
Q 2025 -91 1672 -91 
Q 1134 -91 871 261 
Q 609 613 609 1325 
z
" transform="scale(0.015625)"/>
       <path id="DejaVuSansMono-6d" d="M 2113 3144 
Q 2219 3369 2383 3476 
Q 2547 3584 2778 3584 
Q 3200 3584 3373 3257 
Q 3547 2931 3547 2028 
L 3547 0 
L 3022 0 
L 3022 2003 
Q 3022 2744 2939 2923 
Q 2856 3103 2638 3103 
Q 2388 3103 2295 2911 
Q 2203 2719 2203 2003 
L 2203 0 
L 1678 0 
L 1678 2003 
Q 1678 2753 1589 2928 
Q 1500 3103 1269 3103 
Q 1041 3103 952 2911 
Q 863 2719 863 2003 
L 863 0 
L 341 0 
L 341 3500 
L 863 3500 
L 863 3200 
Q 966 3388 1120 3486 
Q 1275 3584 1472 3584 
Q 1709 3584 1867 3475 
Q 2025 3366 2113 3144 
z
" transform="scale(0.015625)"/>
       <path id="DejaVuSansMono-6e" d="M 3284 2169 
L 3284 0 
L 2706 0 
L 2706 2169 
Q 2706 2641 2540 2862 
Q 2375 3084 2022 3084 
Q 1619 3084 1401 2798 
Q 1184 2513 1184 1978 
L 1184 0 
L 609 0 
L 609 3500 
L 1184 3500 
L 1184 2975 
Q 1338 3275 1600 3429 
Q 1863 3584 2222 3584 
Q 2756 3584 3020 3232 
Q 3284 2881 3284 2169 
z
" transform="scale(0.015625)"/>
       <path id="DejaVuSansMono-49" d="M 628 4666 
L 3219 4666 
L 3219 4134 
L 2241 4134 
L 2241 531 
L 3219 531 
L 3219 0 
L 628 0 
L 628 531 
L 1606 531 
L 1606 4134 
L 628 4134 
L 628 4666 
z
" transform="scale(0.015625)"/>
       <path id="DejaVuSansMono-6c" d="M 1997 1269 
Q 1997 881 2139 684 
Q 2281 488 2559 488 
L 3231 488 
L 3231 0 
L 2503 0 
Q 1988 0 1705 331 
Q 1422 663 1422 1269 
L 1422 4447 
L 500 4447 
L 500 4897 
L 1997 4897 
L 1997 1269 
z
" transform="scale(0.015625)"/>
       <path id="DejaVuSansMono-67" d="M 2681 1778 
Q 2681 2425 2470 2761 
Q 2259 3097 1856 3097 
Q 1434 3097 1212 2761 
Q 991 2425 991 1778 
Q 991 1131 1214 792 
Q 1438 453 1863 453 
Q 2259 453 2470 793 
Q 2681 1134 2681 1778 
z
M 3256 225 
Q 3256 -563 2884 -969 
Q 2513 -1375 1791 -1375 
Q 1553 -1375 1293 -1331 
Q 1034 -1288 775 -1203 
L 775 -634 
Q 1081 -778 1331 -847 
Q 1581 -916 1791 -916 
Q 2256 -916 2468 -662 
Q 2681 -409 2681 141 
L 2681 166 
L 2681 556 
Q 2544 263 2306 119 
Q 2069 -25 1728 -25 
Q 1116 -25 750 465 
Q 384 956 384 1778 
Q 384 2603 750 3093 
Q 1116 3584 1728 3584 
Q 2066 3584 2300 3450 
Q 2534 3316 2681 3034 
L 2681 3488 
L 3256 3488 
L 3256 225 
z
" transform="scale(0.015625)"/>
       <path id="DejaVuSansMono-63" d="M 3316 178 
Q 3084 44 2839 -23 
Q 2594 -91 2338 -91 
Q 1525 -91 1067 396 
Q 609 884 609 1747 
Q 609 2609 1067 3096 
Q 1525 3584 2338 3584 
Q 2591 3584 2831 3518 
Q 3072 3453 3316 3316 
L 3316 2713 
Q 3088 2916 2858 3006 
Q 2628 3097 2338 3097 
Q 1797 3097 1506 2747 
Q 1216 2397 1216 1747 
Q 1216 1100 1508 748 
Q 1800 397 2338 397 
Q 2638 397 2875 489 
Q 3113 581 3316 775 
L 3316 178 
z
" transform="scale(0.015625)"/>
       <path id="DejaVuSansMono-70" d="M 1172 441 
L 1172 -1331 
L 594 -1331 
L 594 3500 
L 1172 3500 
L 1172 3053 
Q 1316 3313 1555 3448 
Q 1794 3584 2106 3584 
Q 2741 3584 3102 3093 
Q 3463 2603 3463 1734 
Q 3463 881 3100 395 
Q 2738 -91 2106 -91 
Q 1788 -91 1548 45 
Q 1309 181 1172 441 
z
M 2859 1747 
Q 2859 2416 2648 2756 
Q 2438 3097 2022 3097 
Q 1603 3097 1387 2755 
Q 1172 2413 1172 1747 
Q 1172 1084 1387 740 
Q 1603 397 2022 397 
Q 2438 397 2648 737 
Q 2859 1078 2859 1747 
z
" transform="scale(0.015625)"/>
       <path id="DejaVuSansMono-6f" d="M 1925 3097 
Q 1488 3097 1263 2756 
Q 1038 2416 1038 1747 
Q 1038 1081 1263 739 
Q 1488 397 1925 397 
Q 2366 397 2591 739 
Q 2816 1081 2816 1747 
Q 2816 2416 2591 2756 
Q 2366 3097 1925 3097 
z
M 1925 3584 
Q 2653 3584 3039 3112 
Q 3425 2641 3425 1747 
Q 3425 850 3040 379 
Q 2656 -91 1925 -91 
Q 1197 -91 812 379 
Q 428 850 428 1747 
Q 428 2641 812 3112 
Q 1197 3584 1925 3584 
z
" transform="scale(0.015625)"/>
       <path id="DejaVuSansMono-62" d="M 2869 1747 
Q 2869 2416 2656 2756 
Q 2444 3097 2028 3097 
Q 1609 3097 1393 2755 
Q 1178 2413 1178 1747 
Q 1178 1084 1393 740 
Q 1609 397 2028 397 
Q 2444 397 2656 737 
Q 2869 1078 2869 1747 
z
M 1178 3053 
Q 1316 3309 1558 3446 
Q 1800 3584 2119 3584 
Q 2750 3584 3112 3098 
Q 3475 2613 3475 1759 
Q 3475 894 3111 401 
Q 2747 -91 2113 -91 
Q 1800 -91 1561 45 
Q 1322 181 1178 441 
L 1178 0 
L 603 0 
L 603 4863 
L 1178 4863 
L 1178 3053 
z
" transform="scale(0.015625)"/>
      </defs>
      <use xlink:href="#DejaVuSansMono-4d"/>
      <use xlink:href="#DejaVuSansMono-61" x="60.205078"/>
      <use xlink:href="#DejaVuSansMono-64" x="120.410156"/>
      <use xlink:href="#DejaVuSansMono-65" x="180.615234"/>
      <use xlink:href="#DejaVuSansMono-20" x="240.820312"/>
      <use xlink:href="#DejaVuSansMono-77" x="301.025391"/>
      <use xlink:href="#DejaVuSansMono-69" x="361.230469"/>
      <use xlink:href="#DejaVuSansMono-74" x="421.435547"/>
      <use xlink:href="#DejaVuSansMono-68" x="481.640625"/>
      <use xlink:href="#DejaVuSansMono-20" x="541.845703"/>
      <use xlink:href="#DejaVuSansMono-48" x="602.050781"/>
      <use xlink:href="#DejaVuSansMono-75" x="662.255859"/>
      <use xlink:href="#DejaVuSansMono-6d" x="722.460938"/>
      <use xlink:href="#DejaVuSansMono-61" x="782.666016"/>
      <use xlink:href="#DejaVuSansMono-6e" x="842.871094"/>
      <use xlink:href="#DejaVuSansMono-20" x="903.076172"/>
      <use xlink:href="#DejaVuSansMono-49" x="963.28125"/>
      <use xlink:href="#DejaVuSansMono-6e" x="1023.486328"/>
      <use xlink:href="#DejaVuSansMono-74" x="1083.691406"/>
      <use xlink:href="#DejaVuSansMono-65" x="1143.896484"/>
      <use xlink:href="#DejaVuSansMono-6c" x="1204.101562"/>
      <use xlink:href="#DejaVuSansMono-6c" x="1264.306641"/>
      <use xlink:href="#DejaVuSansMono-69" x="1324.511719"/>
      <use xlink:href="#DejaVuSansMono-67" x="1384.716797"/>
      <use xlink:href="#DejaVuSansMono-65" x="1444.921875"/>
      <use xlink:href="#DejaVuSansMono-6e" x="1505.126953"/>
      <use xlink:href="#DejaVuSansMono-63" x="1565.332031"/>
      <use xlink:href="#DejaVuSansMono-65" x="1625.537109"/>
      <use xlink:href="#DejaVuSansMono-20" x="1685.742188"/>
      <use xlink:href="#DejaVuSansMono-61" x="1745.947266"/>
      <use xlink:href="#DejaVuSansMono-6e" x="1806.152344"/>
      <use xlink:href="#DejaVuSansMono-64" x="1866.357422"/>
      <use xlink:href="#DejaVuSansMono-20" x="1926.5625"/>
      <use xlink:href="#DejaVuSansMono-4d" x="1986.767578"/>
      <use xlink:href="#DejaVuSansMono-61" x="2046.972656"/>
      <use xlink:href="#DejaVuSansMono-74" x="2107.177734"/>
      <use xlink:href="#DejaVuSansMono-70" x="2167.382812"/>
      <use xlink:href="#DejaVuSansMono-6c" x="2227.587891"/>
      <use xlink:href="#DejaVuSansMono-6f" x="2287.792969"/>
      <use xlink:href="#DejaVuSansMono-74" x="2347.998047"/>
      <use xlink:href="#DejaVuSansMono-6c" x="2408.203125"/>
      <use xlink:href="#DejaVuSansMono-69" x="2468.408203"/>
      <use xlink:href="#DejaVuSansMono-62" x="2528.613281"/>
     </g>
    </g>
   </g>
   <g id="matplotlib.axis_2"/>
  </g>
  <g id="axes_2">
   <g id="patch_11">
    <path d="M 174.6 174.6 
L 342 174.6 
L 342 7.2 
L 174.6 7.2 
L 174.6 174.6 
z
" style="fill: none"/>
   </g>
   <g id="matplotlib.axis_3"/>
   <g id="matplotlib.axis_4"/>
   <g id="text_2">
    <!-- Chart -->
    <g style="fill: #404059" transform="translate(174.6 57.14625) scale(0.4 -0.4)">
     <defs>
      <path id="DejaVuSansMono-Bold-43" d="M 3378 134 
Q 3159 22 2918 -34 
Q 2678 -91 2413 -91 
Q 1469 -91 972 531 
Q 475 1153 475 2328 
Q 475 3506 972 4128 
Q 1469 4750 2413 4750 
Q 2678 4750 2922 4694 
Q 3166 4638 3378 4525 
L 3378 3500 
Q 3141 3719 2917 3820 
Q 2694 3922 2456 3922 
Q 1950 3922 1692 3520 
Q 1434 3119 1434 2328 
Q 1434 1541 1692 1139 
Q 1950 738 2456 738 
Q 2694 738 2917 839 
Q 3141 941 3378 1159 
L 3378 134 
z
" transform="scale(0.015625)"/>
      <path id="DejaVuSansMono-Bold-68" d="M 3347 2272 
L 3347 0 
L 2438 0 
L 2438 2131 
Q 2438 2509 2330 2671 
Q 2222 2834 1978 2834 
Q 1728 2834 1587 2614 
Q 1447 2394 1447 2003 
L 1447 0 
L 538 0 
L 538 4863 
L 1447 4863 
L 1447 2975 
Q 1544 3266 1778 3425 
Q 2013 3584 2344 3584 
Q 2841 3584 3094 3254 
Q 3347 2925 3347 2272 
z
" transform="scale(0.015625)"/>
      <path id="DejaVuSansMono-Bold-61" d="M 2188 1644 
Q 1675 1644 1472 1512 
Q 1269 1381 1269 1063 
Q 1269 825 1409 684 
Q 1550 544 1791 544 
Q 2153 544 2353 817 
Q 2553 1091 2553 1581 
L 2553 1644 
L 2188 1644 
z
M 3463 1997 
L 3463 0 
L 2553 0 
L 2553 391 
Q 2388 159 2128 34 
Q 1869 -91 1556 -91 
Q 959 -91 626 225 
Q 294 541 294 1106 
Q 294 1719 691 2011 
Q 1088 2303 1919 2303 
L 2553 2303 
L 2553 2456 
Q 2553 2678 2392 2792 
Q 2231 2906 1919 2906 
Q 1591 2906 1283 2823 
Q 975 2741 641 2559 
L 641 3341 
Q 944 3466 1256 3525 
Q 1569 3584 1919 3584 
Q 2772 3584 3117 3237 
Q 3463 2891 3463 1997 
z
" transform="scale(0.015625)"/>
      <path id="DejaVuSansMono-Bold-72" d="M 3597 2534 
Q 3447 2672 3245 2740 
Q 3044 2809 2803 2809 
Q 2513 2809 2295 2707 
Q 2078 2606 1959 2413 
Q 1884 2294 1854 2125 
Q 1825 1956 1825 1613 
L 1825 0 
L 909 0 
L 909 3500 
L 1825 3500 
L 1825 2956 
Q 1959 3256 2237 3420 
Q 2516 3584 2888 3584 
Q 3075 3584 3254 3539 
Q 3434 3494 3597 3406 
L 3597 2534 
z
" transform="scale(0.015625)"/>
      <path id="DejaVuSansMono-Bold-74" d="M 2156 4494 
L 2156 3500 
L 3353 3500 
L 3353 2797 
L 2156 2797 
L 2156 1141 
Q 2156 906 2270 804 
Q 2384 703 2650 703 
L 3353 703 
L 3353 0 
L 2584 0 
Q 1797 0 1519 251 
Q 1241 503 1241 1184 
L 1241 2797 
L 347 2797 
L 347 3500 
L 1241 3500 
L 1241 4494 
L 2156 4494 
z
" transform="scale(0.015625)"/>
     </defs>
     <use xlink:href="#DejaVuSansMono-Bold-43"/>
     <use xlink:href="#DejaVuSansMono-Bold-68" x="60.205078"/>
     <use xlink:href="#DejaVuSansMono-Bold-61" x="120.410156"/>
     <use xlink:href="#DejaVuSansMono-Bold-72" x="180.615234"/>
     <use xlink:href="#DejaVuSansMono-Bold-74" x="240.820312"/>
    </g>
    <!-- Craft -->
    <g style="fill: #404059" transform="translate(174.6 101.9375) scale(0.4 -0.4)">
     <defs>
      <path id="DejaVuSansMono-Bold-66" d="M 2309 3806 
L 2309 3500 
L 3384 3500 
L 3384 2797 
L 2309 2797 
L 2309 0 
L 1394 0 
L 1394 2797 
L 544 2797 
L 544 3500 
L 1394 3500 
L 1394 3744 
Q 1394 4375 1656 4619 
Q 1919 4863 2631 4863 
L 3384 4863 
L 3384 4159 
L 2669 4159 
Q 2463 4159 2389 4084 
Q 2316 4009 2309 3806 
z
" transform="scale(0.015625)"/>
     </defs>
     <use xlink:href="#DejaVuSansMono-Bold-43"/>
     <use xlink:href="#DejaVuSansMono-Bold-72" x="60.205078"/>
     <use xlink:href="#DejaVuSansMono-Bold-61" x="120.410156"/>
     <use xlink:href="#DejaVuSansMono-Bold-66" x="180.615234"/>
     <use xlink:href="#DejaVuSansMono-Bold-74" x="240.820312"/>
    </g>
    <!-- Hub -->
    <g style="fill: #404059" transform="translate(174.6 146.72875) scale(0.4 -0.4)">
     <defs>
      <path id="DejaVuSansMono-Bold-48" d="M 428 4666 
L 1350 4666 
L 1350 2888 
L 2503 2888 
L 2503 4666 
L 3425 4666 
L 3425 0 
L 2503 0 
L 2503 2075 
L 1350 2075 
L 1350 0 
L 428 0 
L 428 4666 
z
" transform="scale(0.015625)"/>
      <path id="DejaVuSansMono-Bold-75" d="M 500 1222 
L 500 3500 
L 1416 3500 
L 1416 1363 
Q 1416 984 1522 821 
Q 1628 659 1875 659 
Q 2122 659 2261 878 
Q 2400 1097 2400 1491 
L 2400 3500 
L 3316 3500 
L 3316 0 
L 2400 0 
L 2400 519 
Q 2303 228 2070 68 
Q 1838 -91 1509 -91 
Q 1009 -91 754 240 
Q 500 572 500 1222 
z
" transform="scale(0.015625)"/>
      <path id="DejaVuSansMono-Bold-62" d="M 2656 1741 
Q 2656 2247 2487 2534 
Q 2319 2822 2022 2822 
Q 1725 2822 1553 2534 
Q 1381 2247 1381 1741 
Q 1381 1234 1553 946 
Q 1725 659 2022 659 
Q 2319 659 2487 946 
Q 2656 1234 2656 1741 
z
M 1381 3003 
Q 1550 3294 1773 3439 
Q 1997 3584 2278 3584 
Q 2900 3584 3236 3109 
Q 3572 2634 3572 1747 
Q 3572 872 3240 390 
Q 2909 -91 2309 -91 
Q 1994 -91 1759 62 
Q 1525 216 1381 519 
L 1381 0 
L 469 0 
L 469 4863 
L 1381 4863 
L 1381 3003 
z
" transform="scale(0.015625)"/>
     </defs>
     <use xlink:href="#DejaVuSansMono-Bold-48"/>
     <use xlink:href="#DejaVuSansMono-Bold-75" x="60.205078"/>
     <use xlink:href="#DejaVuSansMono-Bold-62" x="120.410156"/>
    </g>
   </g>
  </g>
  <g id="axes_3">
   <g id="patch_12">
    <path d="M 120.24 89.46 
C 120.24 85.678019 119.495032 81.932812 118.047731 78.438717 
C 116.600429 74.944622 114.47894 71.769589 111.804675 69.095325 
C 109.130411 66.42106 105.955378 64.299571 102.461283 62.852269 
C 98.967188 61.404968 95.221981 60.66 91.44 60.66 
C 87.658019 60.66 83.912812 61.404968 80.418717 62.852269 
C 76.924622 64.299571 73.749589 66.42106 71.075325 69.095325 
C 68.40106 71.769589 66.279571 74.944622 64.832269 78.438717 
C 63.384968 81.932812 62.64 85.678019 62.64 89.46 
C 62.64 93.241981 63.384968 96.987188 64.832269 100.481283 
C 66.279571 103.975378 68.40106 107.150411 71.075325 109.824675 
C 73.749589 112.49894 76.924622 114.620429 80.418717 116.067731 
C 83.912812 117.515032 87.658019 118.26 91.44 118.26 
C 95.221981 118.26 98.967188 117.515032 102.461283 116.067731 
C 105.955378 114.620429 109.130411 112.49894 111.804675 109.824675 
C 114.47894 107.150411 116.600429 103.975378 118.047731 100.481283 
C 119.495032 96.987188 120.24 93.241981 120.24 89.46 
M 91.44 89.46 
C 91.44 89.46 91.44 89.46 91.44 89.46 
C 91.44 89.46 91.44 89.46 91.44 89.46 
C 91.44 89.46 91.44 89.46 91.44 89.46 
C 91.44 89.46 91.44 89.46 91.44 89.46 
C 91.44 89.46 91.44 89.46 91.44 89.46 
C 91.44 89.46 91.44 89.46 91.44 89.46 
C 91.44 89.46 91.44 89.46 91.44 89.46 
C 91.44 89.46 91.44 89.46 91.44 89.46 
C 91.44 89.46 91.44 89.46 91.44 89.46 
C 91.44 89.46 91.44 89.46 91.44 89.46 
C 91.44 89.46 91.44 89.46 91.44 89.46 
C 91.44 89.46 91.44 89.46 91.44 89.46 
C 91.44 89.46 91.44 89.46 91.44 89.46 
C 91.44 89.46 91.44 89.46 91.44 89.46 
C 91.44 89.46 91.44 89.46 91.44 89.46 
C 91.44 89.46 91.44 89.46 91.44 89.46 
L 91.44 89.46 
z
" style="fill: none"/>
   </g>
   <g id="patch_13">
    <path d="M 91.44 89.46 
C 91.44 89.46 91.44 89.46 91.44 89.46 
C 91.44 89.46 91.44 89.46 91.44 89.46 
L 97.96153 87.341026 
C 98.072537 87.682668 98.156525 88.032506 98.21272 88.387307 
C 98.268915 88.742108 98.297143 89.100776 98.297143 89.46 
z
" clip-path="url(#pa63c72b94b)" style="fill: #004cff; fill-opacity: 0.1; stroke: #d3d3d3; stroke-linejoin: miter"/>
   </g>
   <g id="patch_14">
    <path d="M 91.44 89.46 
C 91.44 89.46 91.44 89.46 91.44 89.46 
C 91.44 89.46 91.44 89.46 91.44 89.46 
L 98.668282 70.200311 
C 99.677235 70.578978 100.654874 71.036343 101.592169 71.568182 
C 102.529464 72.100022 103.423519 72.704693 104.266076 73.37661 
z
" clip-path="url(#pa63c72b94b)" style="fill: #ceff29; fill-opacity: 0.1; stroke: #d3d3d3; stroke-linejoin: miter"/>
   </g>
   <g id="patch_15">
    <path d="M 91.44 89.46 
C 91.44 89.46 91.44 89.46 91.44 89.46 
C 91.44 89.46 91.44 89.46 91.44 89.46 
L 73.861697 68.404601 
C 75.517295 67.02241 77.330153 65.8403 79.262673 64.882791 
C 81.195192 63.925281 83.233919 63.199036 85.336569 62.71912 
z
" clip-path="url(#pa63c72b94b)" style="fill: #ff6800; fill-opacity: 0.1; stroke: #d3d3d3; stroke-linejoin: miter"/>
   </g>
   <g id="patch_16">
    <path d="M 91.44 89.46 
C 91.44 89.46 91.44 89.46 91.44 89.46 
C 91.44 89.46 91.44 89.46 91.44 89.46 
L 67.82569 93.745365 
C 67.376007 91.267407 67.319149 88.73404 67.657206 86.238402 
C 67.995263 83.742763 68.724041 81.315818 69.816747 79.04679 
z
" clip-path="url(#pa63c72b94b)" style="fill: #ffc400; fill-opacity: 0.1; stroke: #d3d3d3; stroke-linejoin: miter"/>
   </g>
   <g id="patch_17">
    <path d="M 91.44 89.46 
C 91.44 89.46 91.44 89.46 91.44 89.46 
C 91.44 89.46 91.44 89.46 91.44 89.46 
L 80.166829 97.270073 
C 79.962335 96.974904 79.769513 96.671818 79.588809 96.361514 
C 79.408104 96.051211 79.239657 95.73393 79.083856 95.410406 
z
" clip-path="url(#pa63c72b94b)" style="fill: #29ffce; fill-opacity: 0.1; stroke: #d3d3d3; stroke-linejoin: miter"/>
   </g>
   <g id="patch_18">
    <path d="M 91.44 89.46 
C 91.44 89.46 91.44 89.46 91.44 89.46 
C 91.44 89.46 91.44 89.46 91.44 89.46 
L 94.311535 106.360646 
C 93.204503 106.548738 92.081663 106.627607 90.959207 106.596114 
C 89.836751 106.564621 88.7201 106.422918 87.625355 106.17305 
z
" clip-path="url(#pa63c72b94b)" style="fill: #7dff7a; fill-opacity: 0.1; stroke: #d3d3d3; stroke-linejoin: miter"/>
   </g>
   <g id="patch_19">
    <path d="M 91.44 89.46 
C 91.44 89.46 91.44 89.46 91.44 89.46 
C 91.44 89.46 91.44 89.46 91.44 89.46 
L 113.075044 106.319756 
C 112.412772 107.169608 111.701 107.9797 110.943428 108.745819 
C 110.185857 109.511938 109.383802 110.232755 108.541435 110.904521 
z
" clip-path="url(#pa63c72b94b)" style="fill: #ff6800; fill-opacity: 0.1; stroke: #d3d3d3; stroke-linejoin: miter"/>
   </g>
   <g id="matplotlib.axis_5"/>
   <g id="matplotlib.axis_6"/>
   <g id="patch_20">
    <path d="M 120.24 89.46 
C 120.24 85.678019 119.495032 81.932812 118.047731 78.438717 
C 116.600429 74.944622 114.47894 71.769589 111.804675 69.095325 
C 109.130411 66.42106 105.955378 64.299571 102.461283 62.852269 
C 98.967188 61.404968 95.221981 60.66 91.44 60.66 
C 87.658019 60.66 83.912812 61.404968 80.418717 62.852269 
C 76.924622 64.299571 73.749589 66.42106 71.075325 69.095325 
C 68.40106 71.769589 66.279571 74.944622 64.832269 78.438717 
C 63.384968 81.932812 62.64 85.678019 62.64 89.46 
C 62.64 93.241981 63.384968 96.987188 64.832269 100.481283 
C 66.279571 103.975378 68.40106 107.150411 71.075325 109.824675 
C 73.749589 112.49894 76.924622 114.620429 80.418717 116.067731 
C 83.912812 117.515032 87.658019 118.26 91.44 118.26 
C 95.221981 118.26 98.967188 117.515032 102.461283 116.067731 
C 105.955378 114.620429 109.130411 112.49894 111.804675 109.824675 
C 114.47894 107.150411 116.600429 103.975378 118.047731 100.481283 
C 119.495032 96.987188 120.24 93.241981 120.24 89.46 
" style="fill: none; stroke: #ffffff; stroke-width: 0.8; stroke-linejoin: miter; stroke-linecap: square"/>
   </g>
  </g>
 </g>
 <defs>
  <clipPath id="pf249bd6ddf">
   <rect x="7.2" y="7.2" width="167.4" height="167.4"/>
  </clipPath>
  <clipPath id="pa63c72b94b">
   <path d="M 120.24 89.46 
C 120.24 85.678019 119.495032 81.932812 118.047731 78.438717 
C 116.600429 74.944622 114.47894 71.769589 111.804675 69.095325 
C 109.130411 66.42106 105.955378 64.299571 102.461283 62.852269 
C 98.967188 61.404968 95.221981 60.66 91.44 60.66 
C 87.658019 60.66 83.912812 61.404968 80.418717 62.852269 
C 76.924622 64.299571 73.749589 66.42106 71.075325 69.095325 
C 68.40106 71.769589 66.279571 74.944622 64.832269 78.438717 
C 63.384968 81.932812 62.64 85.678019 62.64 89.46 
C 62.64 93.241981 63.384968 96.987188 64.832269 100.481283 
C 66.279571 103.975378 68.40106 107.150411 71.075325 109.824675 
C 73.749589 112.49894 76.924622 114.620429 80.418717 116.067731 
C 83.912812 117.515032 87.658019 118.26 91.44 118.26 
C 95.221981 118.26 98.967188 117.515032 102.461283 116.067731 
C 105.955378 114.620429 109.130411 112.49894 111.804675 109.824675 
C 114.47894 107.150411 116.600429 103.975378 118.047731 100.481283 
C 119.495032 96.987188 120.24 93.241981 120.24 89.46 
M 91.44 89.46 
C 91.44 89.46 91.44 89.46 91.44 89.46 
C 91.44 89.46 91.44 89.46 91.44 89.46 
C 91.44 89.46 91.44 89.46 91.44 89.46 
C 91.44 89.46 91.44 89.46 91.44 89.46 
C 91.44 89.46 91.44 89.46 91.44 89.46 
C 91.44 89.46 91.44 89.46 91.44 89.46 
C 91.44 89.46 91.44 89.46 91.44 89.46 
C 91.44 89.46 91.44 89.46 91.44 89.46 
C 91.44 89.46 91.44 89.46 91.44 89.46 
C 91.44 89.46 91.44 89.46 91.44 89.46 
C 91.44 89.46 91.44 89.46 91.44 89.46 
C 91.44 89.46 91.44 89.46 91.44 89.46 
C 91.44 89.46 91.44 89.46 91.44 89.46 
C 91.44 89.46 91.44 89.46 91.44 89.46 
C 91.44 89.46 91.44 89.46 91.44 89.46 
C 91.44 89.46 91.44 89.46 91.44 89.46 
z
"/>
  </clipPath>
 </defs>
</svg>
